<svg xmlns="http://www.w3.org/2000/svg" viewBox="0 0 1516.72 254.97"><defs><style>.cls-1{fill:#868C9F;}</style></defs><path class="cls-1" d="M0,76.1a15.32,15.32,0,0,0,5-2.36c9.44-7.3,29.5-30.64,36.58-29.92S58.1,34.34,69.9,34.34s26,8.76,38.94,9.48,26.55-16,31.27-16,7.08,6.57,12.39,5.84S193.21,16.1,205,16.1s34.82,20.43,49.57,21.16,37.17-12.4,46-11.67,18.88-10.22,26-9.49S354.29.78,359.6.78s11.21,4.38,15.34,4.38S379.07.05,382.62.78s5.9,4.38,9.44,4.38S399.14-2.28,407.4.71,435.72,10.26,445.16,11s24.19,20.43,33,25.54S506.52,53.31,513,54.77s31.28.73,40.72-2.92,31.86-12.4,38.35-11.67,14.75,8.75,19.47,8.75,11.8,7.3,18.29,6.57,18.29-3.65,23.6-.73,17.7,5.84,20.65,5.84,8.85-3.65,14.16-1.46,19.48,11.67,24.2,12.4S729,81.76,734.87,81.76s9.44-6.56,17.7-5.83,27.14,12.4,30.68,16,20.06,7.29,24.78,11.67,14.75,12.4,21.24,11.67,10-4.37,14.16-3.64,7.08,6.56,10.62,7.29,16.52-5.84,24.2-3.65,23,13.82,34.22,14.93a19.21,19.21,0,0,1,7,2.25c11.2,1.77,21.3,3,27.47,2.8,17.43-.66,36.67-4,51.69-3.3s72.74,38.23,86,38.88,44.23-26.55,55.65-26.55c5.85,0,22.37,13.76,43.73,8.07,13.83-3.69,29.83,7,44.69,6.18,30.45-1.75,78.46-27,113.73-24.6,30.77,2.06,122.64,96.87,174.3,121H0Z"/></svg>