<svg xmlns="http://www.w3.org/2000/svg" viewBox="0 0 798.52 209.35"><defs><style>.cls-1{fill:#7fcfd0;}</style></defs><title>clouds-3</title><g id="Layer_2" data-name="Layer 2"><g id="hero"><g id="background"><g id="clouds"><path class="cls-1" d="M169,0H0A85,85,0,0,0,80.07,75.88a169.2,169.2,0,0,0,132,63.19l1.12,0a134.93,134.93,0,0,0,98.16,42.19A136.61,136.61,0,0,0,331,179.81a110.71,110.71,0,0,0,127.84,16.27A133.64,133.64,0,0,0,624.63,154.8a94.87,94.87,0,0,0,99.63-31.64c1.18,0,2.35.09,3.54.09a108.48,108.48,0,0,0,70.72-26.08V0Z"/></g></g></g></g></svg>