<svg xmlns="http://www.w3.org/2000/svg" viewBox="0 0 1006.77 241"><defs><style>.cls-1{fill:#69c7c8;}</style></defs><path class="cls-1" d="M785.51,0H0C21.55,38.1,57.19,64.52,99.56,68.61c1.49.14,3,.21,4.45.3,18.71,33.74,50,57.2,87.31,60.8a102.12,102.12,0,0,0,26.48-.93,65.18,65.18,0,0,0-.67,9.22,64,64,0,0,0,74,63.22,145.5,145.5,0,0,0,60.1,19.67,146.78,146.78,0,0,0,74.6-12.52,122.52,122.52,0,0,0,63.93,25.9c26.36,2.55,51.82-3.75,74.25-16.77A94,94,0,0,0,715.58,176a182.88,182.88,0,0,0,25.73-21.87c.46,0,.93.11,1.4.15C798.23,159.61,851.18,139.38,893,102c1.06,0,2.12,0,3.18,0A111,111,0,0,0,1006.77,0Z"/></svg>