<svg xmlns="http://www.w3.org/2000/svg" viewBox="0 0 1814 212.33"><defs><style>.cls-1{fill:#725d7b;}</style></defs><path class="cls-1" d="M5.79,153.45c5.44.87,17.21-11.77,21.42-13.88s9-1.93,15.81-2.63,10.19-10.19,20-16S88.16,118.85,91,119s6.67-2.81,11.59-3.34,6.85,1.59,11.59,1.76,41.28-9,48.13-10.19,18.79,3.17,23.36,3.52,6.5-3.16,16.16-4.22,27.22.18,36,.88S301.56,102,306.12,102s32-7.73,37.06-8.26,18.27,4.57,24.24,6.5,44.43-11.42,50.93-12.82,17.57-1.23,23.36-1.93,18.8-10,22.66-12S480.88,72,486,71.07s18.8-6,26-7.9,26.52,1,29.85,1.76,5.62-2.46,7.38-2.81,3.16,1.23,5.27,1.23,6.67-1.59,13.17-3.17,6.5,3.17,11.59,3.17,8.61-4.92,11.77-6.68,10.19-.88,19.15-1.58,16-3.69,20.37-4.39,7.2-3.86,9-3.69,1-4.21,7-4.39,7.73,3,13.7,5.45,17.74-1.59,21.08-2.11,8.25-4.57,11.24-5.27,25.47.53,29.86,1,6.32,2.73,10.18,4.31,3.52-3,6.5-3S743.8,44.73,750,44.2s25.64-7.9,29.51-8.25,10.71,1,14,1,4.74-3.51,7.73-5.44c2.63,1.05,12.29.87,17.56.87s13.52,3.87,20.2,5.1,9.66-3.87,11.41-4.39,3.52,2.63,5.1,2.63S857.44,33,859.37,33s7,1.41,11.07,2.64,14.22-.18,21.25,1.93,21.43,12.12,30.38,13.35,13.53-3.69,18.27-3.34,20,3,30.21,1.4,16.33-7.37,20.72-9.31,14.58.36,19.5-.35,11.59-3.86,16.16-3.86,8.25,2.81,10.71,4.21,8.26-.52,14.23-.35,9.13-4.91,11.41-5.79,8.43,2.46,12.47,2.28,8.61-4.39,11.24-4.92,4,1.94,6.85,2.11,6.33-3.51,9.84-4.92,21.78,5.27,25.64,6,9.84-2.1,14-2.1,7.56,1.58,13.88,2.1,9.31-2.45,11.94-2.45,7.91,2.1,13,1.75,7.38-4.74,17.39-4.92,16.68,9.14,35.83,9.14c12.31,0,29.5-2.91,41.55-4.94a69,69,0,0,1,9.82-3.42c12.78-3.2,19.58-4.8,26.37-4.4s13.58-5.59,22-5.59,13.19-1.2,17.18-3.2,12.79-8.39,19.58-8.39,11.19-3.19,15.58-3.19S1405.44,0,1411,0s19.57,5.19,24.37,5.19,24,19.18,35.16,19.18,29.57,4,36.76,3.6c7-.39,20.67,14.21,27.7,15.13a22,22,0,0,1,4.93-.65c8.43,0,14,7.72,19,8.43s19-8.08,22.13-8.43,5.62,1.75,11.59,0,11.59,13,18.61,12.64,10.19-9.48,20-9.48,13,11.94,26,11.94,24.59-14,29.86-14,8.08,5.62,21.07,5.62,30.57-11.24,37.94-11.59,18.27,6.67,23.54,6.67,23.53-6.67,35.48-6.67a50.11,50.11,0,0,0,8.83-1.06V212.33H0V152.47C1.9,152.77,3.89,153.14,5.79,153.45Z"/></svg>
