<svg xmlns="http://www.w3.org/2000/svg" viewBox="0 0 1814 168.32"><defs><style>.cls-1{fill:#61486a;}</style></defs><path class="cls-1" d="M10.77,42.75c5.39-.2,13.78,4.6,20.38,3.4S64.11,27,76.1,27s9.58,4.19,15,3.6,12-6.6,14.38-6.6,13.19,3.6,19.18,0,13.19-8.39,17.38-9,13.79-1.2,21.58-3.59S177.38,6,181,6s10.19-6,16.78-6,18.58,9.59,24,10.19,11.39-4.2,15.58-3,7.19,3,9.59,3,4.8-3.6,6.59-3.6,6,3.6,8.4,3S282.26,2.4,290.05,3s9,3,14.39,2.39c0,0,9.89-2.39,14.38-2.69S326,5.09,329,5.09s9-1.19,13.18-.6,17.68,4.2,20.08,3.9,16.48,0,20.68,1.2,15,6.94,17.68,9.16,7.49,7.32,11.68,7.92,17.39-6.29,20.38-5.39,21.28-5.4,25.17-4.5,20.38-4.19,25.17-3.59S491.13,15,494.42,15s11.69-.3,15.88.9S528,29.37,533.08,30.27s30.86,1.19,34.76.3,9-5.4,13.48-5.1,15,4.5,19.18,4.8,10.19-3.9,12-3.9,3.59,1.8,5.79,2,4.6-1.4,6.2-1.4,4.39,4.39,6.39,4.59,4.39-2.19,9.19-1,16.78,6.59,18.58,6.39,4,6.59,7.39,6.79,5-6.39,9.79-6.19,13.58,5.39,17,5.19,9.19,1.8,12.18,1.4,6.8,4.79,10.59,4.2,13.79,12.38,17.78,12,8.59,13.59,19,13.79,12.79-6.8,19.78-6,16.38-8,20.37-7,13.39,6.39,17.59,5.79,6.39-2.39,10.58-1,10,6.79,12.59,6.39,3-3.4,5.19-3,6.2-3.39,8.39-2.4,2.8,2.6,6,2.8,4.59-3.4,7.79-2.4,7.79,5,10.39,5.2,4.59-1.4,8.59,0,5,5.79,9,5,12-4.79,20-3.79,18.78,9.39,23.58,9.59,9-5.6,14.78-5.2c4.63.32,11.43,8,16.62,10.89a5.46,5.46,0,0,1,1.13-.3c8.2-1.18,25.29-20.61,48.94-22,6.61-.39,43.32,7.5,60.89,4.92,3.87-.57,8.63-1.37,13.75-2.29,4-.71,8.16,1.32,12.3.54,5.12-1,10.17-4.75,14.63-5.62,8.32-1.61,11-3.25,15.75-2.93,5.45.36,31.8-8.75,37.94-10.07,2.62-.57,8.64,1.64,16.6,3.88,2.31.65,4.78,4.11,7.39,4.69,2.13.48,4.35-1.89,6.63-1.54a74.57,74.57,0,0,0,11.54.94c1.67,0,4.7-1.44,6.14-1.52,2.61-.14,3.4,1,5.41.67,8.18-1.36,12.15-4,17.25-5.25,4.2-1,7,.1,10.88.31,1.39.08,2.63,1.88,4,2,1.61.12,3.37-1.45,4.92-1.28a66.87,66.87,0,0,1,12.5,2.26c7.25,2.34,19.85,19.67,29.5,19.44,4.4-.11,13.23-2.9,22.36-6.31,1.41-.52,5.64-3.88,7.06-4.42,2.85-1.11,2.85.57,5.5-.53,8-3.32,14.62-6.31,16.27-7.23,4.22-2.34,11.81-12.19,16.26-12.89,1.65-.26,8.83,0,17.48.54,3.58.22,7.42-2.34,11.22-2.07,4.59.32,9.13,3.48,13.1,3.8,6.12.51,10.91,1,12.53,1.24,5.62.94,13.58,7.73,13.58,7.73s60.88-17.57,63.69-18.27,8.43-4.68,12-6.06,7,2.55,15.92,0,27.87-10.1,33-10.57,19.44,2.81,24.82,3S1608.18,22,1615,22s12,5.62,15.46,5.85,9.13-3,11.47-4,4.69-.24,11-.94,15.46-7,21.31-7,14.29,4.91,17.1,5.85,4.91,0,10.3,1.17,7.49,5.86,11,6.32,15-2.34,18.5-2.57,17.8,2.11,20.14,2.34,13.81-1.17,16.16-1.4,11,3.51,16.39,3.74,13.35-1.4,17.09-2.1c2.25-.41,7.88-1.77,13.09-2.94v142H0v-123C4.31,43.65,6.94,42.89,10.77,42.75Z"/></svg>
