<svg xmlns="http://www.w3.org/2000/svg" viewBox="0 0 1814 112.17"><defs><style>.cls-1{fill:#4f345a;}</style></defs><path class="cls-1" d="M0,112.17V10.41c9.21-.71,10.39,1.42,13.22,1.19s9.22-1.66,11.82,0,6.86,5.2,10.64,5.2,9.21-2.13,10.87-1.66,6.62,3.55,10.87,2.6S64.75,13.49,70,14.43s5.2,2.37,7.56,1.89,3.31-3.54,6.62-3.07,6.38,2.6,9.45,1.65,7.8-6,12.29-4.63,17,4.37,23.64-.22S141.09-.46,143.69.25s2.83,1,4.25,1,6.38-1.77,9.46-1,21.5,11.41,32.38,18.73S207,19.43,212.94,20s13.23-6,19.85-4.86,14.59-1.29,15.84-4,10.16-9.45,13.7-7.8S269.9,1,274.15,2.85s6.62,5,12.06,3.78,10-3.78,12.17-3.31,3.54,2.13,5.43,1.19,6.62-3.43,10.52-2S320,7,321.3,7.22s8.28-2.24,10.4-2,12.77,3.9,16.55,3.67,6.62,1.53,9,.82,6.38-2,8.74-1.65,8.16,2.95,12.29,3.31,6.15,2.48,8.75,1.77,12.52-.12,14.3.59,8.58,15.13,16.46,17.49,29.15-4.72,35.06-1.89,20.56,9,27.65,7.09,22.69-1.18,25.53-2.6,11.58-9.45,15.13-9.45,8.74,2.36,12.29,1.42S546.9,17,550,18.45s9.93,4.49,11.35,4.25,10.63-2.83,12.76-1.41,7.09,6.85,11.11,6.38,11.81-1.89,15.12-.24,6.38,9,12.77,7.8,20.56-1.42,26.7.47,18,12.06,22.93,11.82,19.14-.94,23.4-.24,16.07,6.62,20.09,6.15,20.09,6.62,25.29,4.73,13.94-2.84,17.49-1.42,10.63,6.38,14.18,6.14,9.92,8.28,14.41,7.33,5.44,1.65,8,.47A26.44,26.44,0,0,1,797,68.87s8.75,1.81,11.11,1.81,7.32-1.81,9.93-1.81c6.14,0,12.52-4,16.31-3.86,10.16.24,13.71,4.88,17.72,3.86s4.49-4.57,9.93-4.1,5.44,3.94,12.29,4.1S887,71.39,889.6,71.16s7.33-2.45,11.35-2.29,6.38,1.81,12,1.81,12.29-2.91,16.31-1.81,4.49,7.31,8.74,7.4,3.79,8.59,8.28,8.36,10.87-.71,16.07,1.89,17.25,15.83,20.32,15.12c1.19-.27,2.46,1.94,4,4.7,6.93-2.59,16.31-9.22,20.34-11.17,5.14-2.47,16.82.18,22,0s15.23-6,19.83-8.14,10.09-9.21,14.87-12.93,18.77-6.55,22.49-7.08,5.14,3.72,8.32,3.72,2.48-4.78,6-4.78,29.93-2.66,36-3.9,24.26-8.85,33.82-11.51,40.73-1.41,47.63-1.06,26.21,4.78,32.94,4.43,20.18-4.61,30.28-6.55,25,3.89,32.58,3.89,30.63-1.42,36.83-1.42,24.08,5.67,32.94,5.67,12.92-7.08,22.48-7.08,23.91,3.18,32.41,3.18,23.55-10.27,28.33-10.27,11.86,2.71,15.94,2.71,8.32-1.82,12.57-2.88,10.8,1.41,15.76,1.59,8.32-4.78,14.34-5.67,17.71.54,22.67,0,11.51-4.6,17.17-6S1584,29,1591,28.42s16.65-6,22.67-6,13.28,1.77,19.12,1.77,13.28-5.84,18.24-7.62,12.57,1.07,15.23,1.07,6-2.48,11.51-2.48,13.1,3,17.53,3.19,15.94-6.73,22.31-7.44,6.91,1.77,10.63,1.77,5.48-3.37,9-3.37,4.78,1.24,8.5,1.24,11.68-6.9,15.76-6.9,14.69,2.12,16.82,2.12,6-2.12,8.32-2.12S1791,5.75,1794,5.75s6.2-1.59,8.68-1.59,6.19,1.59,8.85,1.59a6.62,6.62,0,0,0,2.5-.69V112.17Z"/></svg>