<svg xmlns="http://www.w3.org/2000/svg" viewBox="0 0 60 60"><defs><style>.cls-1{fill:#f2f2f3;}</style></defs><title>db_logo</title><g id="Layer_2" data-name="Layer 2"><g id="hero"><g id="header"><g id="logo"><path class="cls-1" d="M55.71,34.55l-9.52,5.73-4.78-2.89-8.08,4.87L22.88,36,18.1,38.83l-9.52-5.7L1,37.7a30,30,0,0,0,58.25-1Z"/><path class="cls-1" d="M13.67,34.5,19,25.56l3.27,2.83,3.86-3.34L30,28.39l3.86-3.34,3.86,3.34,3.45-3,7.09,12,7.5-4.51,1.19.72A27.14,27.14,0,1,0,2.86,30a27.68,27.68,0,0,0,.4,4.67l5.32-3.21Zm9.75-16.44H36.75l3.82,6.44L37.67,27l-3.86-3.34L30,27l-3.86-3.34L22.23,27l-2.72-2.34Z"/><path class="cls-1" d="M30,0A30,30,0,0,0,0,30a30.5,30.5,0,0,0,.65,6.24L2,35.46A28.6,28.6,0,0,1,30,1.43,28.61,28.61,0,0,1,58.57,30a29.16,29.16,0,0,1-.34,4.41l1.32.79A30.75,30.75,0,0,0,60,30,30,30,0,0,0,30,0Z"/></g></g></g></g></svg>